<svg width="223" height="45" viewBox="0 0 223 45" fill="none" xmlns="http://www.w3.org/2000/svg">
<path d="M220.169 15.4308L219.094 12.7391L219.69 12.7391L220.359 14.5165L221.025 12.7391L221.621 12.7391L220.549 15.4308L220.169 15.4308ZM218.885 15.4308L218.885 12.7391L219.562 12.7391L219.562 15.4308L218.885 15.4308ZM221.153 15.4308L221.153 12.7391L221.833 12.7391L221.833 15.4308L221.153 15.4308ZM216.918 15.4308L216.918 12.9731L217.598 12.9731L217.598 15.4308L216.918 15.4308ZM216.099 13.2986L216.099 12.7391L218.417 12.7391L218.417 13.2986L216.099 13.2986Z" fill="black"/>
<path d="M2.16272 9.05297C2.16272 8.67536 2.71198 8.19475 3.3299 8.19475C4.18812 8.19475 9.06282 8.33207 9.26879 8.33207C9.44044 8.33207 9.88671 8.81267 9.92104 8.91566C10.0584 9.39626 10.4703 10.2545 11.1912 11.9366C11.9464 13.6874 15.036 20.3472 15.8943 21.6173C15.9286 21.686 16.2032 21.7547 16.3405 21.48C17.1644 19.6949 19.8078 14.3053 20.8376 12.0053C21.4899 10.5291 21.7645 9.63656 22.0048 8.94999C22.0735 8.74401 22.4511 8.33207 22.6571 8.33207C23.2406 8.33207 27.4631 8.12609 28.5616 8.12609C28.9049 8.12609 29.6945 8.40072 29.6945 8.88133C29.6945 9.25895 29.4198 9.46492 28.6646 9.67089C26.5019 10.2545 26.3302 10.5634 26.3302 11.353C26.3302 16.468 26.5705 21.0681 26.6735 24.2263C26.7765 26.9383 27.4974 27.1786 28.7333 27.5219C29.6945 27.7622 30.0378 28.1055 30.0378 28.4488C30.0378 28.7921 29.4885 29.204 28.7676 29.204C28.3556 29.204 24.7168 28.998 23.3093 28.998C21.9361 28.998 21.1466 29.1354 20.3227 29.1354C19.5675 29.1354 19.2242 28.5518 19.2242 28.2771C19.2242 27.9682 19.7391 27.7279 20.0824 27.6249C21.6272 27.11 21.9018 26.698 21.9361 24.8099C21.9705 23.9174 21.9361 17.2576 22.0048 13.962C22.0048 13.7904 21.7302 13.859 21.5929 14.065C21.0436 15.0605 17.8167 22.5442 17.1644 24.0547C16.7868 24.9472 16.0659 26.8353 15.6196 27.9339C15.3107 28.7577 14.7271 29.2383 14.0748 29.2383C13.7659 29.2383 13.3196 28.6548 13.1136 28.0712C12.6674 26.6637 11.8778 24.604 11.5345 23.7114C10.127 19.8322 8.47923 16.6397 7.58668 14.4426C7.48369 14.2023 7.20906 14.1336 7.17473 14.4083C6.9001 18.0471 6.69413 22.9218 6.69413 24.6726C6.69413 26.7323 7.00309 26.8697 8.75386 27.4876C9.5091 27.7622 9.78373 28.0025 9.78373 28.4145C9.78373 28.7921 9.26879 29.1354 8.58222 29.1354C8.10161 29.1354 6.86577 28.998 5.87024 28.998C4.77171 28.998 2.36869 29.204 1.92242 29.204C1.27017 29.204 0.720906 28.8951 0.720906 28.4488C0.720906 28.1398 0.995537 27.8309 1.81943 27.5906C3.50154 27.11 4.08514 26.3547 4.32544 24.9129C4.73738 22.5442 5.56128 13.8933 5.59561 12.4172C5.66426 10.5291 5.18366 10.2545 3.29557 9.77388C2.54034 9.60224 2.16272 9.3276 2.16272 9.05297ZM36.9633 14.5456C38.3708 14.5456 39.641 15.0605 40.7738 16.2277C41.4261 16.88 41.8724 18.5621 41.8724 19.1113C41.8724 20.4158 41.7351 21.3427 41.7351 25.1875C41.7351 26.2174 42.3186 26.6637 42.9022 26.6637C43.1425 26.6637 43.6918 26.5607 44.0008 26.4234C44.1037 26.3891 44.2754 26.698 44.2754 26.904C44.2754 27.3846 43.9321 28.1398 43.8291 28.2428C43.0052 29.1354 42.147 29.4787 40.9455 29.4787C39.8813 29.4787 38.6111 29.0667 37.9932 27.3846C37.9932 27.3503 37.6842 27.2129 37.6156 27.2816C36.9977 27.7279 36.2081 28.2771 35.4185 28.7921C34.8006 29.1354 34.0111 29.3413 33.4961 29.3413C32.3633 29.3413 29.9259 28.2085 29.9259 25.1532C29.9259 24.3636 30.2692 23.7114 30.5095 23.4024C30.8528 22.8875 31.7454 22.5442 31.8827 22.5099C34.5603 21.8576 36.5514 21.377 37.5813 20.8621C37.7872 20.7591 38.0275 20.3472 38.0275 20.2785C38.0275 19.7979 38.0275 19.2486 38.0275 18.8367C38.0275 18.5964 37.9932 18.3561 37.9245 18.1158C37.5126 17.0516 36.4141 16.4337 35.4529 16.4337C34.8693 16.4337 34.3543 16.777 34.2514 16.9829C34.1484 17.2232 34.0111 18.0471 33.9081 18.9397C33.8737 19.2143 33.6334 19.5233 33.4961 19.6606C33.3245 19.8322 32.8095 20.0382 32.6036 20.0382C31.917 20.0382 30.8185 19.9352 30.4065 19.7293C30.2692 19.6263 29.9946 19.18 29.9946 19.0083C29.9946 18.2188 31.4021 17.0173 32.8439 16.0561C34.114 15.2322 35.7962 14.5456 36.9633 14.5456ZM35.6245 26.5607C36.1738 26.5607 36.9633 26.3204 37.5469 25.7711C37.6499 25.5995 37.7872 25.2905 37.7872 24.7756L37.8902 22.7159C37.8902 22.5785 37.7186 22.4756 37.6156 22.4756C36.7917 22.6472 35.4872 22.9905 34.8006 23.2308C33.9767 23.5054 33.7364 24.0547 33.7364 24.7413C33.7364 25.8055 34.6976 26.5607 35.6245 26.5607ZM49.572 14.9575C49.9496 14.9575 52.5242 14.7859 53.3138 14.7859C53.4511 14.7859 53.7601 15.0262 53.7944 15.2322C53.8974 15.5755 53.8631 16.2964 53.8631 16.468C53.8287 16.7083 53.5541 17.2232 53.0392 17.2232C51.769 17.2232 50.3272 17.2576 49.5376 17.2576C49.469 17.2576 49.263 17.4979 49.263 17.7382L49.1943 23.5398C49.16 24.9472 49.3317 25.4278 49.7436 25.9084C50.2242 26.4234 50.8078 26.5607 51.3227 26.5607C51.8033 26.5607 52.3183 26.492 52.7989 26.3547C53.1078 26.2517 53.3481 26.1144 53.5541 26.1144C53.6914 26.1144 53.9317 26.3891 53.9317 26.6637C53.9317 27.1443 53.7601 27.5562 52.7302 28.3458C51.8033 29.0667 50.0526 29.41 49.1943 29.41C47.9928 29.41 46.4137 29.0667 45.5212 27.6935C45.2465 27.2816 45.0405 26.492 45.0405 25.2562C45.0405 22.8532 45.1779 21.0337 45.1779 17.7725C45.1779 17.4979 45.1092 17.3262 44.1823 17.1546C43.6331 17.0173 43.2554 16.3307 43.2554 16.0904C43.2554 15.8501 43.6331 15.5755 43.9764 15.3695C44.8002 14.7859 46.2764 13.7217 47.0316 12.8635C47.4779 12.3485 48.5078 12.0053 48.7481 12.0053C48.954 12.0053 49.2287 12.4172 49.2287 12.6575C49.2287 13.0351 49.2287 14.3053 49.2287 14.5113C49.2287 14.6486 49.3317 14.9575 49.572 14.9575ZM61.9904 14.5456C64.3591 14.5456 65.6293 15.2665 65.9039 15.5755C66.1442 15.8158 66.3502 16.4337 66.3502 16.674C66.3502 17.8755 65.6293 18.8024 64.9084 18.8024C64.6681 18.8024 64.1188 18.4591 63.6039 17.9442C62.677 17.0516 61.6128 16.365 60.48 16.365C59.6217 16.365 58.9695 16.88 58.6262 17.2232C58.1113 17.7725 57.6307 18.871 57.6307 20.7591C57.6307 24.2607 59.965 26.2861 62.4367 26.2861C63.6382 26.2861 64.8741 25.8055 65.8696 24.9816C66.0069 24.8786 66.4875 25.0159 66.4875 25.4622C66.4875 25.9428 66.1442 26.5607 65.8009 27.0756C64.7024 28.5518 62.677 29.41 60.5829 29.41C58.7635 29.41 57.1844 28.8607 55.8112 27.6592C54.9187 26.904 53.6828 24.9129 53.6828 22.5099C53.6828 19.1457 55.4679 17.0859 57.3217 15.9531C59.0725 14.8889 60.8232 14.5456 61.9904 14.5456ZM77.1067 14.5456C79.0634 14.5456 80.1619 15.3008 80.7799 16.0217C81.6037 16.9143 82.05 18.4591 82.1187 20.5188C82.1187 21.6173 82.256 25.5995 82.256 26.1144C82.256 26.8697 82.359 27.2129 83.4575 27.5906C83.9724 27.7622 84.3844 28.1398 84.3844 28.4488C84.3844 28.8951 83.6978 29.101 83.3202 29.101C82.3933 29.101 81.1231 28.998 80.1619 28.998C79.441 28.998 78.2052 29.101 77.2783 29.101C76.5917 29.101 76.2141 28.6204 76.2141 28.3801C76.2141 28.1742 76.4887 27.8995 77.0723 27.6935C77.7932 27.4532 78.1365 27.1786 78.1365 25.8055C78.1365 24.9816 78.1709 21.5144 78.1365 20.0039C78.1022 19.0083 77.8276 18.3561 77.3813 17.7725C76.935 17.2576 75.8708 16.9143 75.2529 16.9143C74.1544 16.9143 73.4335 17.2232 73.0215 17.6009C72.9185 17.7038 72.7469 18.3561 72.7469 18.4591C72.7469 19.18 72.7812 25.4965 72.8499 26.2861C72.8842 26.8697 73.0902 27.1443 73.8111 27.5562C74.2917 27.7965 74.6007 28.1055 74.6007 28.2428C74.6007 28.5861 74.223 29.101 73.5365 29.101C72.7469 29.101 71.6827 28.998 70.7558 28.998C69.8633 28.998 67.7692 29.101 67.1856 29.101C66.4647 29.101 66.0871 28.7234 66.0871 28.4145C66.0871 28.1398 66.4647 27.7622 67.014 27.5906C68.2498 27.2129 68.4901 26.8353 68.5244 26.3547C68.5931 25.7025 68.7647 23.2308 68.7647 16.8113C68.7647 12.8635 68.6961 11.6963 68.5931 10.7008C68.5588 10.2888 68.3528 9.80821 68.1468 9.67089C67.4603 9.15596 66.911 8.70968 66.911 8.40072C66.911 7.98878 67.4603 7.64549 67.6662 7.5425C68.3871 7.26787 70.2409 6.64995 71.1334 6.37532C71.6484 6.20368 72.129 6.13502 72.3349 6.13502C72.4723 6.13502 72.7812 6.40965 72.7812 7.5425C72.7812 8.77834 72.7469 14.168 72.7469 15.7128C72.7469 15.8844 72.9185 16.0217 72.9872 15.9874C73.5708 15.6441 74.223 15.2665 75.0469 14.9232C75.4245 14.7516 76.4544 14.5456 77.1067 14.5456Z" fill="black"/>
<path d="M141.265 9.30272C141.265 8.82211 141.814 8.65047 142.295 8.65047C142.466 8.65047 145.178 8.75345 146.552 8.75345C147.925 8.75345 150.259 8.61614 150.946 8.61614C151.667 8.61614 152.044 8.9251 152.044 9.33704C152.044 9.71466 151.632 10.0236 150.946 10.1609C149.126 10.5729 148.92 11.1908 148.852 12.049C148.783 12.8386 148.68 14.4864 148.68 17.9879C148.68 22.1417 148.749 25.094 148.852 26.2612C148.886 26.7075 149.607 27.4284 150.74 27.703C151.564 27.8746 153.246 27.8403 154.207 27.6343C155.374 27.3254 156.782 25.7119 157.605 24.2014C157.914 23.5492 158.258 23.3089 158.395 23.3089C158.91 23.3089 159.288 23.9955 159.185 24.5791C159.013 25.403 158.292 28.0119 158.052 28.6985C157.846 29.2135 157.228 29.5567 156.541 29.5567C155.34 29.5567 151.529 29.4194 147.272 29.4194C144.938 29.4194 142.226 29.5911 141.471 29.5911C140.716 29.5911 140.201 29.2478 140.201 28.8358C140.201 28.3896 140.681 28.1149 141.265 28.0119C143.531 27.5313 143.771 26.7761 143.874 25.9865C143.943 25.1627 144.011 23.3776 144.011 19.2924C144.011 13.0789 144.011 12.9072 143.943 11.9804C143.84 10.8475 143.393 10.6415 142.26 10.1953C141.505 9.88631 141.265 9.68033 141.265 9.30272ZM167.494 14.967C172.472 14.967 175.287 18.7775 175.287 22.176C175.287 24.9567 174.154 26.6731 172.987 27.7373C171.751 28.8702 169.863 29.8314 167.357 29.8314C165.057 29.8314 162.997 29.0418 161.555 27.6C160.079 26.1582 159.53 23.9611 159.53 22.4163C159.53 19.8417 160.8 17.9536 162.31 16.7521C163.615 15.6879 166.018 14.967 167.494 14.967ZM166.979 16.6491C166.327 16.6491 165.572 17.0267 165.228 17.473C164.713 18.1596 164.096 19.8417 164.096 21.7984C164.096 24.7507 165.125 26.7418 165.881 27.3597C166.155 27.6 166.979 28.1836 167.837 28.1836C168.352 28.1836 169.176 27.806 169.691 27.1194C170.069 26.6045 170.549 25.197 170.549 22.7253C170.549 19.4297 169.176 16.6491 166.979 16.6491ZM182.5 14.967C183.907 14.967 185.246 15.3103 185.795 15.4819C186.241 15.6192 186.791 15.6879 187.134 15.6879C187.546 15.6879 190.327 15.6192 190.533 15.6192C190.979 15.6192 191.116 16.7521 191.116 17.2327C191.116 17.5073 190.807 17.9193 190.704 17.9193C189.949 17.9193 188.713 17.7476 187.958 17.7133C188.335 18.3312 188.541 19.1894 188.541 19.979C188.541 21.3865 188.026 22.5193 186.722 23.5835C185.658 24.4761 183.838 24.9567 182.397 24.9567C182.191 24.9567 181.401 24.9224 181.229 24.888C181.092 24.888 180.92 24.991 180.817 25.0597C180.611 25.197 180.405 25.5059 180.405 25.7806C180.405 26.5701 181.676 26.8448 181.847 26.8448C183.289 26.8791 186.31 26.9821 187.34 27.0507C187.924 27.0507 188.679 27.2567 189.537 27.9433C190.258 28.5269 191.013 29.7971 191.013 30.9986C191.013 33.2986 189.125 35.1867 187.821 36.0106C186.207 36.9718 184.628 37.624 181.95 37.624C179.17 37.624 175.565 36.3195 175.565 33.3673C175.565 32.715 176.217 31.7195 176.595 31.4448C176.938 31.1702 177.934 30.6896 178.38 30.415C178.517 30.312 178.483 30.0717 178.38 30.0374C178.002 29.9344 177.762 29.7971 177.453 29.5911C176.767 29.1448 176.252 28.2866 176.252 27.0164C176.252 26.8791 176.389 26.6388 176.458 26.6388C177.316 26.2612 178.723 25.2656 179.067 24.8537C179.204 24.7507 179.17 24.5104 179.067 24.4417C177.659 23.6179 176.423 22.4163 176.423 20.1506C176.423 18.3312 177.247 17.1984 178.414 16.2715C179.17 15.6879 181.126 14.967 182.5 14.967ZM182.397 16.4431C180.92 16.4431 180.268 17.9879 180.268 19.6357C180.268 22.2447 181.607 23.4805 182.946 23.4805C183.529 23.4805 184.113 23.0343 184.285 22.794C184.456 22.5193 184.868 21.1462 184.868 19.979C184.868 17.7819 183.77 16.4431 182.397 16.4431ZM183.838 35.633C184.353 35.633 185.898 35.3927 186.482 35.015C187.237 34.4658 187.821 33.8135 187.786 32.7837C187.786 31.5135 186.585 30.9986 185.589 30.8269C185.04 30.6896 183.701 30.5866 182.328 30.5866C181.264 30.5866 180.234 30.8612 180.062 30.9299C179.444 31.3419 179.101 31.8911 179.101 32.509C179.101 34.5001 181.195 35.633 183.838 35.633ZM191.536 16.8894C191.536 16.6491 191.914 16.3058 192.051 16.2715C193.767 15.6536 196.239 14.864 196.823 14.864C196.994 14.864 197.235 15.4476 197.235 15.8939C197.235 17.164 197.235 19.3611 197.235 21.8671C197.269 26.3642 197.338 26.5015 197.372 26.8104C197.441 27.3597 197.681 27.703 198.642 28.0463C199.123 28.1836 199.603 28.5269 199.603 28.9388C199.603 29.2478 199.157 29.5224 198.436 29.5224C197.715 29.5224 195.965 29.4194 195.209 29.4194C193.459 29.4194 192.154 29.5567 191.673 29.5567C191.09 29.5567 190.472 29.3508 190.472 28.9388C190.472 28.5269 191.021 28.2179 191.33 28.1149C192.841 27.6343 192.875 27.4284 193.012 26.1239C193.081 25.403 193.184 22.8283 193.184 20.8715C193.184 20.185 193.15 19.0521 193.115 18.8461C193.115 18.7088 192.978 18.3312 192.051 17.679C191.845 17.5073 191.536 17.0954 191.536 16.8894ZM195.175 7.8609C195.793 7.8609 196.239 8.1012 196.548 8.41016C197.132 9.02808 197.303 9.88631 197.303 10.1953C197.303 12.049 195.724 12.6669 194.9 12.6669C194.214 12.6669 193.424 12.2893 192.978 11.6027C192.738 11.2595 192.6 10.8818 192.6 10.3669C192.6 8.9251 193.596 7.8609 195.175 7.8609ZM207.945 14.967C210.314 14.967 211.584 15.6879 211.859 15.9968C212.099 16.2371 212.305 16.8551 212.305 17.0954C212.305 18.2969 211.584 19.2238 210.863 19.2238C210.623 19.2238 210.073 18.8805 209.558 18.3655C208.632 17.473 207.567 16.7864 206.435 16.7864C205.576 16.7864 204.924 17.3013 204.581 17.6446C204.066 18.1939 203.585 19.2924 203.585 21.1805C203.585 24.682 205.92 26.7075 208.391 26.7075C209.593 26.7075 210.829 26.2268 211.824 25.403C211.961 25.3 212.442 25.4373 212.442 25.8836C212.442 26.3642 212.099 26.9821 211.756 27.497C210.657 28.9732 208.632 29.8314 206.538 29.8314C204.718 29.8314 203.139 29.2821 201.766 28.0806C200.873 27.3254 199.637 25.3343 199.637 22.9313C199.637 19.567 201.423 17.5073 203.276 16.3745C205.027 15.3103 206.778 14.967 207.945 14.967Z" fill="black"/>
<path fill-rule="evenodd" clip-rule="evenodd" d="M88.9276 14.5714C87.2205 15.3187 86.4425 17.3084 87.1898 19.0155L97.5754 42.7386C98.3227 44.4457 100.312 45.2238 102.019 44.4764L134.655 30.1891C136.362 29.4418 137.14 27.4521 136.393 25.745L126.007 2.02187C125.26 0.314778 123.27 -0.46326 121.563 0.284071L88.9276 14.5714ZM98.7577 18.0442C98.5655 18.1403 98.3252 18.3806 98.3252 18.7411C98.3252 18.8372 98.4934 19.0295 98.998 19.4139C99.3407 19.671 99.3398 19.718 99.3355 19.9294C99.335 19.9551 99.3344 19.9834 99.3344 20.0147C99.3344 22.2255 99.3104 23.8115 99.2623 24.7006C99.2383 25.4695 99.0701 25.7819 98.3973 26.0222C97.9167 26.1905 97.6523 26.4308 97.6523 26.647C97.6523 26.8873 97.9647 27.1517 98.5174 27.1517C98.7938 27.1517 99.2083 27.1276 99.6228 27.1036C100.037 27.0796 100.452 27.0555 100.728 27.0555C101.109 27.0555 101.643 27.0756 102.148 27.0946C102.599 27.1116 103.027 27.1276 103.299 27.1276C103.684 27.1276 103.972 26.8633 103.972 26.623C103.972 26.3106 103.732 26.1664 103.275 25.9261C102.819 25.6858 102.795 25.5416 102.747 24.8688C102.699 24.244 102.699 23.9076 102.699 19.6783C102.699 19.5101 102.867 19.1977 102.963 19.1256C103.251 18.9093 103.636 18.8612 103.972 18.8612C104.645 18.8612 105.222 19.0295 105.558 19.462C105.702 19.6542 105.895 19.9186 105.871 20.5674L105.775 24.6525C105.751 25.7819 105.726 25.806 105.198 25.9742C104.813 26.0943 104.429 26.2866 104.429 26.5509C104.429 26.8152 104.813 27.1036 105.342 27.1036C105.606 27.1036 105.919 27.0916 106.231 27.0796C106.544 27.0676 106.856 27.0555 107.12 27.0555C107.433 27.0555 107.907 27.0676 108.382 27.0796C108.856 27.0916 109.331 27.1036 109.643 27.1036C110.028 27.1036 110.412 26.8633 110.412 26.5509C110.412 26.2866 110.172 26.1184 109.691 25.9502C109.307 25.806 109.139 25.4215 109.115 24.8688C109.067 24.3161 108.995 20.9759 108.995 19.7263C108.995 19.486 109.091 19.3418 109.187 19.2698C109.379 19.1256 110.076 18.9814 110.34 18.9814C111.061 18.9814 111.422 19.1977 111.71 19.438C112.046 19.7263 112.143 20.279 112.143 21.2162C112.143 21.5896 112.148 22.1386 112.153 22.7349C112.159 23.4433 112.167 24.2184 112.167 24.8448C112.167 25.5416 112.046 25.7339 111.542 25.9742C111.085 26.1905 110.917 26.4788 110.917 26.5749C110.917 26.7672 111.133 27.1036 111.734 27.1036C112.01 27.1036 112.413 27.0916 112.815 27.0796C113.218 27.0676 113.62 27.0555 113.897 27.0555C114.179 27.0555 114.613 27.0681 115.036 27.0804C115.441 27.0921 115.837 27.1036 116.083 27.1036C116.468 27.1036 116.949 26.8633 116.949 26.5749C116.949 26.2625 116.564 26.0703 116.252 25.9502C115.843 25.806 115.531 25.4936 115.531 25.0851C115.531 24.4843 115.483 22.2255 115.387 20.6635C115.242 18.5488 114.257 16.8908 111.998 16.8908C111.422 16.8908 110.893 17.0349 110.388 17.2752C109.999 17.4605 109.71 17.66 109.257 17.9728C109.122 18.0658 108.973 18.1689 108.802 18.2845C108.682 18.3326 108.514 18.2845 108.466 18.2124C108.105 17.6597 107.288 16.8908 105.823 16.8908C104.477 16.8908 103.275 17.6838 102.843 17.9962C102.723 18.0682 102.603 18.0682 102.603 17.852V16.9629C102.603 16.9148 102.386 16.6505 102.122 16.6505C102.026 16.6505 101.93 16.6745 101.761 16.7946C101.172 17.1696 100.092 17.5579 99.359 17.8214C99.1055 17.9125 98.8935 17.9886 98.7577 18.0442ZM116.231 17.059C115.774 17.059 115.51 17.3714 115.534 17.4915C115.534 17.7799 115.774 17.9962 116.111 18.1403C116.639 18.3806 117 18.5729 117.24 19.0295C117.841 20.3031 119.739 24.6045 120.364 26.2625C120.393 26.3328 120.431 26.4173 120.471 26.5077C120.597 26.7885 120.748 27.1264 120.748 27.2718C120.748 27.4641 120.7 27.7044 120.58 28.0888C120.484 28.3772 120.364 28.7377 120.268 28.9299C120.172 29.1702 120.003 29.3865 119.763 29.3865H118.97C118.153 29.3865 117.576 30.0833 117.576 30.8523C117.576 31.5011 117.961 32.4864 119.114 32.4864C120.027 32.4864 120.652 31.6693 120.724 31.4531C120.754 31.3672 120.785 31.2794 120.816 31.1891C121.188 30.1173 121.683 28.6909 122.791 25.854C123.199 24.8207 125.146 20.0868 125.578 19.2938C126.011 18.5488 126.347 18.3085 126.852 18.1884C127.188 18.0682 127.501 17.8039 127.501 17.5396C127.501 17.3473 127.237 17.083 126.852 17.083C126.469 17.083 126.031 17.1142 125.654 17.141C125.369 17.1613 125.119 17.1791 124.954 17.1791C124.802 17.1791 124.637 17.1743 124.454 17.1689C124.231 17.1624 123.982 17.1551 123.704 17.1551C123.392 17.1551 123.007 17.3473 123.007 17.5876C123.007 17.852 123.272 18.0923 123.608 18.1884C124.305 18.4047 124.377 18.669 124.185 19.2457C124.065 19.6062 123.103 22.2976 122.791 22.9704C122.767 23.0425 122.599 23.1146 122.551 22.9704C122.142 22.0813 121.565 20.6875 120.965 19.1256C120.7 18.4527 120.893 18.3326 121.109 18.2365C121.565 18.0442 121.782 17.7799 121.782 17.5876C121.782 17.2752 121.397 17.1311 121.133 17.1311C120.999 17.1311 120.838 17.1387 120.645 17.1479C120.353 17.1617 119.986 17.1791 119.523 17.1791C119.122 17.1791 118.421 17.1465 117.75 17.1152C117.133 17.0865 116.541 17.059 116.231 17.059Z" fill="black"/>
</svg>
